<svg width="512" height="512" viewBox="0 0 512 512" fill="none" xmlns="http://www.w3.org/2000/svg">
<rect width="512" height="512" fill="url(#paint0_linear_2055_56)"/>
<path d="M127 88.5C127 87.6716 127.672 87 128.5 87H189.5C190.328 87 191 87.6716 191 88.5V240.662C191 241.164 190.749 241.633 190.33 241.911L129.33 282.451C128.333 283.114 127 282.399 127 281.202V88.5Z" fill="white"/>
<path d="M222.566 89.5932C221.624 88.6406 220 89.3082 220 90.6483V151.363C220 151.819 220.207 152.25 220.564 152.535L378.417 278.672C378.683 278.884 379.014 279 379.354 279H406.405C407.738 279 408.409 277.392 407.472 276.445L222.566 89.5932Z" fill="white"/>
<path d="M286.434 424.589C286.155 424.853 285.786 425 285.402 425H221.607C220.155 425 219.55 423.143 220.724 422.288L378.605 307.288C378.862 307.101 379.171 307 379.488 307H406.737C408.093 307 408.753 308.656 407.769 309.589L286.434 424.589Z" fill="white"/>
<path d="M191 423.5C191 424.328 190.328 425 189.5 425H128.5C127.672 425 127 424.328 127 423.5V321.629C127 321.128 127.25 320.661 127.666 320.382L188.666 279.562C189.662 278.895 191 279.609 191 280.809V423.5Z" fill="white"/>
<path d="M220 195.112C220 193.856 221.452 193.156 222.435 193.939L345.463 291.933C346.237 292.549 346.212 293.733 345.413 294.317L222.385 384.256C221.394 384.981 220 384.273 220 383.045V195.112Z" fill="#00DD21"/>
<defs>
<linearGradient id="paint0_linear_2055_56" x1="9.87413e-06" y1="11.0933" x2="512" y2="512" gradientUnits="userSpaceOnUse">
<stop/>
<stop offset="1" stop-color="#272626"/>
</linearGradient>
</defs>
</svg>
