<svg width="1200" height="1200" viewBox="0 0 1200 1200" fill="none" xmlns="http://www.w3.org/2000/svg">
<rect width="1200" height="1200" fill="#121212"/>
<g filter="url(#filter0_d_2028_3)">
<path d="M847.3 735C847.3 768 839.2 798.3 823 825.9C806.8 852.9 785.2 874.5 758.2 890.7C731.2 906.9 700.9 915 667.3 915L120.1 915V825L667.3 825C692.5 825 713.8 816.3 731.2 798.9C748.6 780.9 757.3 759.6 757.3 735C757.3 710.4 748.6 689.4 731.2 672C713.8 654 692.5 645 667.3 645H300.1C267.1 645 236.8 636.9 209.2 620.7C182.2 604.5 160.6 582.9 144.4 555.9C128.2 528.3 120.1 498 120.1 465C120.1 432 128.2 402 144.4 375C160.6 347.4 182.2 325.5 209.2 309.3C236.8 293.1 267.1 285 300.1 285L802.3 285V375L300.1 375C275.5 375 254.2 384 236.2 402C218.8 419.4 210.1 440.4 210.1 465C210.1 489.6 218.8 510.9 236.2 528.9C254.2 546.3 275.5 555 300.1 555H667.3C700.9 555 731.2 563.1 758.2 579.3C785.2 595.5 806.8 617.4 823 645C839.2 672 847.3 702 847.3 735Z" fill="white"/>
<path d="M1082.1 600C1082.1 643.8 1075.2 684.9 1061.4 723.3C1047.6 761.1 1027.8 794.4 1002 823.2C976.8 852 946.2 874.5 910.2 890.7C874.8 906.9 835.5 915 792.3 915H474.6V825H792.3C833.7 825 869.4 814.8 899.4 794.4C929.4 774 952.2 747 967.8 713.4C984 679.2 992.1 641.4 992.1 600C992.1 558.6 984 520.8 967.8 486.6C952.2 452.4 929.4 425.4 899.4 405.6C869.4 385.2 833.7 375 792.3 375H429.6V915H339.6V285L792.3 285C835.5 285 874.8 293.1 910.2 309.3C946.2 325.5 976.8 348.3 1002 377.7C1027.8 406.5 1047.6 440.1 1061.4 478.5C1075.2 516.3 1082.1 556.8 1082.1 600Z" fill="white"/>
<path d="M1080.09 595.722C1082.18 756.649 953.419 888.802 792.491 890.892C631.564 892.983 499.411 764.22 497.321 603.292C495.23 442.365 623.993 310.213 784.921 308.122C945.848 306.032 1078 434.794 1080.09 595.722ZM580.25 602.215C581.746 717.342 676.287 809.459 791.414 807.963C906.541 806.468 998.658 711.926 997.162 596.799C995.666 481.672 901.125 389.556 785.998 391.051C670.871 392.547 578.754 487.088 580.25 602.215Z" fill="white"/>
</g>
<defs>
<filter id="filter0_d_2028_3" x="90.5" y="259.4" width="1045.2" height="713.2" filterUnits="userSpaceOnUse" color-interpolation-filters="sRGB">
<feFlood flood-opacity="0" result="BackgroundImageFix"/>
<feColorMatrix in="SourceAlpha" type="matrix" values="0 0 0 0 0 0 0 0 0 0 0 0 0 0 0 0 0 0 127 0" result="hardAlpha"/>
<feOffset dx="12" dy="16"/>
<feGaussianBlur stdDeviation="20.8"/>
<feComposite in2="hardAlpha" operator="out"/>
<feColorMatrix type="matrix" values="0 0 0 0 0 0 0 0 0 0 0 0 0 0 0 0 0 0 0.25 0"/>
<feBlend mode="normal" in2="BackgroundImageFix" result="effect1_dropShadow_2028_3"/>
<feBlend mode="normal" in="SourceGraphic" in2="effect1_dropShadow_2028_3" result="shape"/>
</filter>
</defs>
</svg>
